<svg xmlns="http://www.w3.org/2000/svg" version="1.1" xmlns:xlink="http://www.w3.org/1999/xlink" xmlns:svgjs="http://svgjs.dev/svgjs" width="1500" height="1500" viewBox="0 0 1500 1500"><rect width="1500" height="1500" fill="#000000"></rect><g transform="matrix(0.6666666666666666,0,0,0.6666666666666666,249.39393939393938,707.6026171513449)"><svg viewBox="0 0 396 34" data-background-color="#040046" preserveAspectRatio="xMidYMid meet" height="128" width="1500" xmlns="http://www.w3.org/2000/svg" xmlns:xlink="http://www.w3.org/1999/xlink"><g id="tight-bounds" transform="matrix(1,0,0,1,0.2400000000000091,-0.10729277123894576)"><svg viewBox="0 0 395.52 34.21458554247787" height="34.21458554247787" width="395.52"><g><svg viewBox="0 0 442.5391010106833 38.281988085106384" height="34.21458554247787" width="395.52"><g transform="matrix(1,0,0,1,0,0.6740436879432643)"><svg viewBox="0 0 395.52 36.933900709219856" height="36.933900709219856" width="395.52"><g id="textblocktransform"><svg viewBox="0 0 395.52 36.933900709219856" height="36.933900709219856" width="395.52" id="textblock"><g><svg viewBox="0 0 395.52 36.933900709219856" height="36.933900709219856" width="395.52"><g transform="matrix(1,0,0,1,0,0)"><svg width="395.52" viewBox="4.47 -38.09 413.04999999999995 38.580000000000005" height="36.933900709219856" data-palette-color="url(#97e45db8-3931-4147-bfa1-5bd48780d10e)"></svg></g></svg></g></svg></g></svg></g><g transform="matrix(1,0,0,1,404.23920754382976,0)"><svg viewBox="0 0 38.29989346685351 38.281988085106384" height="38.281988085106384" width="38.29989346685351"><g><svg xmlns="http://www.w3.org/2000/svg" xmlns:xlink="http://www.w3.org/1999/xlink" version="1.1" x="0" y="0" viewBox="0.7607695154586737 0.7749999999999999 30.439230484541326 30.425" enable-background="new 0 0 32 32" xml:space="preserve" height="38.281988085106384" width="38.29989346685351" class="icon-icon-0" data-fill-palette-color="accent" id="icon-0"></svg></g></svg></g></svg></g><defs></defs><mask id="0c15608d-5db9-47a7-8f15-85c84db76310"><g id="SvgjsG1005"><svg viewBox="0 0 395.52 34.21458554247787" height="34.21458554247787" width="395.52"><g><svg viewBox="0 0 442.5391010106833 38.281988085106384" height="34.21458554247787" width="395.52"><g transform="matrix(1,0,0,1,0,0.6740436879432643)"><svg viewBox="0 0 395.52 36.933900709219856" height="36.933900709219856" width="395.52"><g id="SvgjsG1004"><svg viewBox="0 0 395.52 36.933900709219856" height="36.933900709219856" width="395.52" id="SvgjsSvg1003"><g><svg viewBox="0 0 395.52 36.933900709219856" height="36.933900709219856" width="395.52"><g transform="matrix(1,0,0,1,0,0)"><svg width="395.52" viewBox="4.47 -38.09 413.04999999999995 38.580000000000005" height="36.933900709219856" data-palette-color="url(#97e45db8-3931-4147-bfa1-5bd48780d10e)"><path d="M8.94 0.02L4.47 0.02 4.47-11.84 5.05-35.55 10.69-35.55 22.19-9.67 33.76-35.55 39.26-35.55 39.84-11.87 39.84 0.02 35.4 0.02 35.4-11.77 35.21-29.13 24.07-4.22 20.21-4.22 9.16-29.37 8.94-11.69 8.94 0.02ZM55.59 0.49L55.59 0.49Q51.8 0.49 49.44-1.42 47.07-3.32 47.07-7.18L47.07-7.18Q47.07-8.94 47.69-10.3 48.31-11.67 49.58-12.61 50.85-13.55 52.85-14.04 54.86-14.53 57.59-14.53L57.59-14.53 63.55-14.53 63.55-17.58Q63.55-20.78 62.11-22.2 60.67-23.63 57.76-23.63L57.76-23.63Q55.88-23.63 53.53-23.03 51.17-22.44 49.29-21.14L49.29-21.14 48-24.51Q49.34-25.37 50.96-25.92 52.59-26.46 54.36-26.73 56.13-27 57.88-27L57.88-27Q60.86-27 63.13-26.05 65.4-25.1 66.68-22.95 67.97-20.8 67.97-17.21L67.97-17.21 67.97 0 64.26 0 63.94-3.25Q62.89-2 61.64-1.17 60.4-0.34 58.9 0.07 57.39 0.49 55.59 0.49ZM56.27-2.66L56.27-2.66Q58.62-2.66 60.47-3.64 62.33-4.61 63.55-6.18L63.55-6.18 63.55-11.72 58.4-11.72Q55.71-11.72 54.15-11.21 52.59-10.69 51.94-9.68 51.29-8.67 51.29-7.13L51.29-7.13Q51.29-4.64 52.74-3.65 54.2-2.66 56.27-2.66ZM83.98 0.49L83.98 0.49Q80.81 0.49 78.08-0.57 75.36-1.64 73.73-3.69L73.73-3.69 76.04-5.93 76.39-5.93Q77.97-4.1 80.05-3.42 82.12-2.73 83.98-2.73L83.98-2.73Q86.52-2.73 87.91-3.91 89.3-5.08 89.3-7.5L89.3-7.5Q89.3-8.35 88.98-9.05 88.67-9.74 87.69-10.36 86.71-10.99 84.69-11.62L84.69-11.62 81.71-12.55Q78.51-13.55 76.97-14.65 75.43-15.75 74.96-17.04 74.48-18.33 74.48-19.9L74.48-19.9Q74.48-23.19 77.06-25.1 79.63-27 84.05-27L84.05-27Q86.2-27 87.89-26.5 89.57-26 90.82-25.13 92.06-24.27 92.84-23.14L92.84-23.14 90.42-21.17 90.18-21.17Q89.28-22.24 87.74-22.95 86.2-23.66 84.08-23.66L84.08-23.66Q82.22-23.66 81.07-23.21 79.93-22.75 79.39-21.9 78.85-21.04 78.85-19.87L78.85-19.87Q78.85-18.53 79.65-17.72 80.44-16.92 83.15-16.06L83.15-16.06 86.08-15.14Q89.25-14.11 90.8-12.94 92.35-11.77 92.85-10.46 93.35-9.16 93.35-7.67L93.35-7.67Q93.35-4.79 92.08-2.99 90.82-1.2 88.69-0.35 86.57 0.49 83.98 0.49ZM109.95 0.2L109.95 0.2Q107.15 0.2 105.42-0.23 103.7-0.66 102.81-1.61 101.92-2.56 101.6-4.17 101.29-5.79 101.29-8.15L101.29-8.15 101.29-23.71 97.11-23.71 97.23-26.17 101.41-26.39 102.04-33.54 105.73-33.81 105.73-26.42 112.76-26.42 112.76-23.71 105.73-23.71 105.73-8.13Q105.73-6.05 105.96-4.98 106.19-3.91 107.1-3.5 108-3.1 109.95-3.03L109.95-3.03Q110.61-3 111.27-2.98 111.93-2.95 112.59-2.93L112.59-2.93 112.39 0.2Q111.78 0.2 111.17 0.2 110.56 0.2 109.95 0.2ZM130.46 0.49L130.46 0.49Q126.89 0.49 124.03-1.15 121.16-2.78 119.48-5.85 117.81-8.91 117.81-13.13L117.81-13.13Q117.81-17.53 119.45-20.63 121.08-23.73 123.84-25.37 126.6-27 129.92-27L129.92-27Q133.17-27 135.46-25.56 137.76-24.12 138.99-21.46 140.22-18.8 140.22-15.14L140.22-15.14Q140.22-14.77 140.16-14.14 140.1-13.5 140.05-12.99 140-12.48 140-12.43L140-12.43 122.35-12.43Q122.55-9.06 123.71-6.93 124.87-4.81 126.76-3.81 128.65-2.81 131.02-2.81L131.02-2.81Q133.29-2.81 134.9-3.45 136.51-4.1 138.15-5.03L138.15-5.03 138.47-5.03 139.49-2.12Q137.86-1 135.55-0.26 133.24 0.49 130.46 0.49ZM122.43-15.31L122.43-15.31 136.42-15.31Q136.37-19.29 134.84-21.5 133.32-23.71 130.14-23.71L130.14-23.71Q126.94-23.71 124.86-21.45 122.77-19.19 122.43-15.31ZM151.4 0L146.98 0 146.98-26.42 150.57-26.42 151.01-20.92Q152.38-24.19 154.38-25.46 156.38-26.73 158.63-26.73L158.63-26.73Q159.17-26.73 159.63-26.71 160.09-26.68 160.56-26.61L160.56-26.61 160.22-23.1Q159.97-23.1 159.73-23.11 159.48-23.12 159.22-23.12L159.22-23.12Q156.58-23.12 154.85-22.02 153.11-20.92 152.26-19.08 151.4-17.24 151.4-14.99L151.4-14.99 151.4 0ZM194.32 0.49L194.32 0.49Q189.58 0.49 186.01-1.66 182.43-3.81 180.45-7.9 178.47-11.99 178.47-17.8L178.47-17.8Q178.47-23.61 180.45-27.7 182.43-31.79 186.01-33.94 189.58-36.08 194.32-36.08L194.32-36.08Q196.1-36.08 197.83-35.72 199.57-35.35 201.14-34.61 202.72-33.86 204.01-32.75 205.3-31.64 206.21-30.15 207.11-28.66 207.5-26.78L207.5-26.78 204.08-25.54 203.69-25.54Q203.25-27.51 201.96-29.05 200.67-30.59 198.77-31.46 196.88-32.32 194.64-32.32L194.64-32.32Q192.07-32.32 189.98-31.42 187.9-30.52 186.41-28.7 184.92-26.88 184.11-24.16 183.31-21.44 183.31-17.8L183.31-17.8Q183.31-12.96 184.72-9.73 186.14-6.49 188.69-4.87 191.24-3.25 194.64-3.25L194.64-3.25Q196.88-3.25 198.8-4.14 200.71-5.03 202.03-6.57 203.35-8.11 203.79-10.06L203.79-10.06 204.18-10.06 207.6-8.81Q207.21-6.96 206.29-5.46 205.38-3.96 204.07-2.84 202.77-1.73 201.19-0.99 199.62-0.24 197.86 0.12 196.1 0.49 194.32 0.49ZM221.29 0.2L221.29 0.2Q218.95 0.2 217.35-0.4 215.75-1 214.93-2.67 214.12-4.35 214.12-7.57L214.12-7.57 214.12-37.6 218.53-38.09 218.53-7.62Q218.53-5.64 218.78-4.74 219.02-3.83 219.77-3.54 220.51-3.25 221.98-3.13L221.98-3.13Q222.37-3.1 222.73-3.08 223.1-3.05 223.49-3.03L223.49-3.03 223.15 0.2Q222.69 0.2 222.22 0.2 221.76 0.2 221.29 0.2ZM236.7 0.49L236.7 0.49Q232.91 0.49 230.54-1.42 228.18-3.32 228.18-7.18L228.18-7.18Q228.18-8.94 228.8-10.3 229.42-11.67 230.69-12.61 231.96-13.55 233.96-14.04 235.96-14.53 238.7-14.53L238.7-14.53 244.66-14.53 244.66-17.58Q244.66-20.78 243.21-22.2 241.77-23.63 238.87-23.63L238.87-23.63Q236.99-23.63 234.63-23.03 232.28-22.44 230.4-21.14L230.4-21.14 229.1-24.51Q230.45-25.37 232.07-25.92 233.69-26.46 235.46-26.73 237.23-27 238.99-27L238.99-27Q241.97-27 244.24-26.05 246.51-25.1 247.79-22.95 249.07-20.8 249.07-17.21L249.07-17.21 249.07 0 245.36 0 245.05-3.25Q244-2 242.75-1.17 241.51-0.34 240 0.07 238.5 0.49 236.7 0.49ZM237.38-2.66L237.38-2.66Q239.72-2.66 241.58-3.64 243.43-4.61 244.66-6.18L244.66-6.18 244.66-11.72 239.5-11.72Q236.82-11.72 235.26-11.21 233.69-10.69 233.05-9.68 232.4-8.67 232.4-7.13L232.4-7.13Q232.4-4.64 233.85-3.65 235.3-2.66 237.38-2.66ZM265.09 0.49L265.09 0.49Q261.91 0.49 259.19-0.57 256.47-1.64 254.83-3.69L254.83-3.69 257.15-5.93 257.49-5.93Q259.08-4.1 261.16-3.42 263.23-2.73 265.09-2.73L265.09-2.73Q267.63-2.73 269.02-3.91 270.41-5.08 270.41-7.5L270.41-7.5Q270.41-8.35 270.09-9.05 269.77-9.74 268.8-10.36 267.82-10.99 265.8-11.62L265.8-11.62 262.82-12.55Q259.62-13.55 258.08-14.65 256.54-15.75 256.07-17.04 255.59-18.33 255.59-19.9L255.59-19.9Q255.59-23.19 258.17-25.1 260.74-27 265.16-27L265.16-27Q267.31-27 268.99-26.5 270.68-26 271.92-25.13 273.17-24.27 273.95-23.14L273.95-23.14 271.53-21.17 271.29-21.17Q270.39-22.24 268.85-22.95 267.31-23.66 265.18-23.66L265.18-23.66Q263.33-23.66 262.18-23.21 261.03-22.75 260.5-21.9 259.96-21.04 259.96-19.87L259.96-19.87Q259.96-18.53 260.75-17.72 261.55-16.92 264.26-16.06L264.26-16.06 267.19-15.14Q270.36-14.11 271.91-12.94 273.46-11.77 273.96-10.46 274.46-9.16 274.46-7.67L274.46-7.67Q274.46-4.79 273.19-2.99 271.92-1.2 269.8-0.35 267.68 0.49 265.09 0.49ZM289.08 0.49L289.08 0.49Q285.91 0.49 283.19-0.57 280.47-1.64 278.83-3.69L278.83-3.69 281.15-5.93 281.49-5.93Q283.08-4.1 285.15-3.42 287.23-2.73 289.08-2.73L289.08-2.73Q291.62-2.73 293.01-3.91 294.41-5.08 294.41-7.5L294.41-7.5Q294.41-8.35 294.09-9.05 293.77-9.74 292.79-10.36 291.82-10.99 289.79-11.62L289.79-11.62 286.81-12.55Q283.62-13.55 282.08-14.65 280.54-15.75 280.06-17.04 279.59-18.33 279.59-19.9L279.59-19.9Q279.59-23.19 282.16-25.1 284.74-27 289.16-27L289.16-27Q291.31-27 292.99-26.5 294.67-26 295.92-25.13 297.16-24.27 297.95-23.14L297.95-23.14 295.53-21.17 295.29-21.17Q294.38-22.24 292.84-22.95 291.31-23.66 289.18-23.66L289.18-23.66Q287.33-23.66 286.18-23.21 285.03-22.75 284.49-21.9 283.96-21.04 283.96-19.87L283.96-19.87Q283.96-18.53 284.75-17.72 285.54-16.92 288.25-16.06L288.25-16.06 291.18-15.14Q294.36-14.11 295.91-12.94 297.46-11.77 297.96-10.46 298.46-9.16 298.46-7.67L298.46-7.67Q298.46-4.79 297.19-2.99 295.92-1.2 293.8-0.35 291.67 0.49 289.08 0.49ZM309.2 0L304.76 0 304.76-26.42 308.47-26.42 308.93-21.24Q310.15-24.27 312.27-25.63 314.4-27 316.99-27L316.99-27Q319.01-27 320.58-26.25 322.14-25.49 323.19-24.1 324.24-22.71 324.73-20.78L324.73-20.78Q326.02-23.97 328.3-25.49 330.59-27 333.42-27L333.42-27Q337.49-27 339.67-24.45 341.84-21.9 341.84-17.02L341.84-17.02 341.84 0 337.42 0 337.42-15.72Q337.42-17.65 337.08-19.48 336.74-21.31 335.7-22.5 334.66-23.68 332.56-23.68L332.56-23.68Q330.93-23.68 329.3-22.62 327.68-21.56 326.61-19.52 325.53-17.48 325.53-14.55L325.53-14.55 325.53 0 321.09 0 321.09-14.89Q321.09-17.94 320.59-19.89 320.09-21.83 318.99-22.75 317.89-23.68 316.11-23.68L316.11-23.68Q314.13-23.68 312.69-22.62 311.25-21.56 310.37-19.73 309.49-17.9 309.2-15.58L309.2-15.58 309.2 0ZM356.88 0.49L356.88 0.49Q353.09 0.49 350.72-1.42 348.36-3.32 348.36-7.18L348.36-7.18Q348.36-8.94 348.98-10.3 349.6-11.67 350.87-12.61 352.14-13.55 354.14-14.04 356.14-14.53 358.88-14.53L358.88-14.53 364.84-14.53 364.84-17.58Q364.84-20.78 363.4-22.2 361.95-23.63 359.05-23.63L359.05-23.63Q357.17-23.63 354.81-23.03 352.46-22.44 350.58-21.14L350.58-21.14 349.28-24.51Q350.63-25.37 352.25-25.92 353.87-26.46 355.64-26.73 357.41-27 359.17-27L359.17-27Q362.15-27 364.42-26.05 366.69-25.1 367.97-22.95 369.25-20.8 369.25-17.21L369.25-17.21 369.25 0 365.54 0 365.23-3.25Q364.18-2 362.93-1.17 361.69-0.34 360.18 0.07 358.68 0.49 356.88 0.49ZM357.56-2.66L357.56-2.66Q359.9-2.66 361.76-3.64 363.61-4.61 364.84-6.18L364.84-6.18 364.84-11.72 359.68-11.72Q357-11.72 355.44-11.21 353.87-10.69 353.23-9.68 352.58-8.67 352.58-7.13L352.58-7.13Q352.58-4.64 354.03-3.65 355.49-2.66 357.56-2.66ZM387.25 0.2L387.25 0.2Q384.44 0.2 382.72-0.23 381-0.66 380.1-1.61 379.21-2.56 378.9-4.17 378.58-5.79 378.58-8.15L378.58-8.15 378.58-23.71 374.4-23.71 374.53-26.17 378.7-26.39 379.34-33.54 383.02-33.81 383.02-26.42 390.05-26.42 390.05-23.71 383.02-23.71 383.02-8.13Q383.02-6.05 383.25-4.98 383.49-3.91 384.39-3.5 385.29-3.1 387.25-3.03L387.25-3.03Q387.9-3 388.56-2.98 389.22-2.95 389.88-2.93L389.88-2.93 389.69 0.2Q389.08 0.2 388.47 0.2 387.86 0.2 387.25 0.2ZM407.75 0.49L407.75 0.49Q404.19 0.49 401.32-1.15 398.45-2.78 396.78-5.85 395.1-8.91 395.1-13.13L395.1-13.13Q395.1-17.53 396.74-20.63 398.38-23.73 401.13-25.37 403.89-27 407.21-27L407.21-27Q410.46-27 412.76-25.56 415.05-24.12 416.28-21.46 417.52-18.8 417.52-15.14L417.52-15.14Q417.52-14.77 417.46-14.14 417.39-13.5 417.35-12.99 417.3-12.48 417.3-12.43L417.3-12.43 399.65-12.43Q399.84-9.06 401-6.93 402.16-4.81 404.05-3.81 405.94-2.81 408.31-2.81L408.31-2.81Q410.58-2.81 412.19-3.45 413.81-4.1 415.44-5.03L415.44-5.03 415.76-5.03 416.78-2.12Q415.15-1 412.84-0.26 410.53 0.49 407.75 0.49ZM399.72-15.31L399.72-15.31 413.71-15.31Q413.66-19.29 412.13-21.5 410.61-23.71 407.43-23.71L407.43-23.71Q404.23-23.71 402.15-21.45 400.06-19.19 399.72-15.31Z" opacity="1" transform="matrix(1,0,0,1,0,0)" fill="white" class="wordmark-text-0" id="SvgjsPath1002"></path></svg></g></svg></g></svg></g></svg></g><g transform="matrix(1,0,0,1,404.23920754382976,0)"><svg viewBox="0 0 38.29989346685351 38.281988085106384" height="38.281988085106384" width="38.29989346685351"><g><svg xmlns="http://www.w3.org/2000/svg" xmlns:xlink="http://www.w3.org/1999/xlink" version="1.1" x="0" y="0" viewBox="0.7607695154586737 0.7749999999999999 30.439230484541326 30.425" enable-background="new 0 0 32 32" xml:space="preserve" height="38.281988085106384" width="38.29989346685351" class="icon-icon-0" data-fill-palette-color="accent" id="SvgjsSvg1001"><g fill="black"><g fill="black"><path fill="black" d="M1.5 31.2C1.3 31.2 1.1 31.1 1 31 0.8 30.8 0.7 30.6 0.8 30.3L4.5 11.2C4.6 10.9 4.8 10.6 5.1 10.6L14.7 9.3C14.9 9.3 15.2 9.3 15.3 9.5L22.5 16.7C22.7 16.9 22.7 17.1 22.7 17.3L21.4 26.9C21.4 27.2 21.1 27.5 20.8 27.5L1.6 31.2zM5.8 12.1L2.4 29.6 19.9 26.2 21.1 17.5 14.4 10.8z"></path></g><g fill="black"><rect x="5.2" y="19.8" transform="matrix(-0.7071 -0.7071 0.7071 -0.7071 -8.3465 48.7211)" fill="black" width="1.5" height="12.6"></rect></g><g fill="black"><path fill="black" d="M12 23.1C11.2 23.1 10.4 22.8 9.8 22.2S8.9 20.9 8.9 20C8.9 19.2 9.2 18.4 9.8 17.8 11 16.6 13 16.6 14.1 17.8 15.3 19 15.3 20.9 14.1 22.1 13.6 22.8 12.8 23.1 12 23.1M12 18.4C11.6 18.4 11.2 18.6 10.9 18.9S10.4 19.6 10.4 20 10.6 20.8 10.9 21.1C11.5 21.7 12.5 21.7 13.1 21.1S13.7 19.5 13.1 18.9C12.8 18.6 12.4 18.4 12 18.4"></path></g><g fill="black"><path fill="black" d="M23.8 18.7C22.9 18.7 22 18.3 21.4 17.7L14.3 10.6C13 9.3 13 7.1 14.3 5.8L19.1 1C19.4 0.7 19.9 0.7 20.2 1L31 11.8C31.1 11.9 31.2 12.1 31.2 12.3S31.1 12.7 31 12.8L26.1 17.7C25.5 18.4 24.7 18.7 23.8 18.7M19.7 2.6L15.4 6.9C14.7 7.6 14.7 8.9 15.4 9.6L22.5 16.7C23.2 17.4 24.5 17.4 25.2 16.7L29.5 12.4z"></path></g></g></svg></g></svg></g></svg></g><defs><mask></mask></defs></svg><rect width="395.52" height="34.21458554247787" fill="black" stroke="none" visibility="hidden"></rect></g></mask><linearGradient x1="0" x2="1" y1="0.578" y2="0.595" id="97e45db8-3931-4147-bfa1-5bd48780d10e"><stop stop-color="#6ee2f5" offset="0"></stop><stop stop-color="#6454f0" offset="1"></stop></linearGradient><rect width="395.52" height="34.21458554247787" fill="#ffffff" mask="url(#0c15608d-5db9-47a7-8f15-85c84db76310)" data-fill-palette-color="primary"></rect><mask id="8b522c6f-2fa9-4e6b-be3d-ecc5f709398a"><g id="SvgjsG1024"><svg viewBox="0 0 395.52 34.21458554247787" height="34.21458554247787" width="395.52"><g><svg viewBox="0 0 442.5391010106833 38.281988085106384" height="34.21458554247787" width="395.52"><g transform="matrix(1,0,0,1,0,0.6740436879432643)"><svg viewBox="0 0 395.52 36.933900709219856" height="36.933900709219856" width="395.52"><g id="SvgjsG1023"><svg viewBox="0 0 395.52 36.933900709219856" height="36.933900709219856" width="395.52" id="SvgjsSvg1022"><g><svg viewBox="0 0 395.52 36.933900709219856" height="36.933900709219856" width="395.52"><g transform="matrix(1,0,0,1,0,0)"><svg width="395.52" viewBox="4.47 -38.09 413.04999999999995 38.580000000000005" height="36.933900709219856" data-palette-color="url(#97e45db8-3931-4147-bfa1-5bd48780d10e)"></svg></g></svg></g></svg></g></svg></g><g transform="matrix(1,0,0,1,404.23920754382976,0)"><svg viewBox="0 0 38.29989346685351 38.281988085106384" height="38.281988085106384" width="38.29989346685351"><g><svg xmlns="http://www.w3.org/2000/svg" xmlns:xlink="http://www.w3.org/1999/xlink" version="1.1" x="0" y="0" viewBox="0.7607695154586737 0.7749999999999999 30.439230484541326 30.425" enable-background="new 0 0 32 32" xml:space="preserve" height="38.281988085106384" width="38.29989346685351" class="icon-icon-0" data-fill-palette-color="accent" id="SvgjsSvg1021"><g fill="white"><g fill="white"><path fill="white" d="M1.5 31.2C1.3 31.2 1.1 31.1 1 31 0.8 30.8 0.7 30.6 0.8 30.3L4.5 11.2C4.6 10.9 4.8 10.6 5.1 10.6L14.7 9.3C14.9 9.3 15.2 9.3 15.3 9.5L22.5 16.7C22.7 16.9 22.7 17.1 22.7 17.3L21.4 26.9C21.4 27.2 21.1 27.5 20.8 27.5L1.6 31.2zM5.8 12.1L2.4 29.6 19.9 26.2 21.1 17.5 14.4 10.8z"></path></g><g fill="white"><rect x="5.2" y="19.8" transform="matrix(-0.7071 -0.7071 0.7071 -0.7071 -8.3465 48.7211)" fill="white" width="1.5" height="12.6"></rect></g><g fill="white"><path fill="white" d="M12 23.1C11.2 23.1 10.4 22.8 9.8 22.2S8.9 20.9 8.9 20C8.9 19.2 9.2 18.4 9.8 17.8 11 16.6 13 16.6 14.1 17.8 15.3 19 15.3 20.9 14.1 22.1 13.6 22.8 12.8 23.1 12 23.1M12 18.4C11.6 18.4 11.2 18.6 10.9 18.9S10.4 19.6 10.4 20 10.6 20.8 10.9 21.1C11.5 21.7 12.5 21.7 13.1 21.1S13.7 19.5 13.1 18.9C12.8 18.6 12.4 18.4 12 18.4"></path></g><g fill="white"><path fill="white" d="M23.8 18.7C22.9 18.7 22 18.3 21.4 17.7L14.3 10.6C13 9.3 13 7.1 14.3 5.8L19.1 1C19.4 0.7 19.9 0.7 20.2 1L31 11.8C31.1 11.9 31.2 12.1 31.2 12.3S31.1 12.7 31 12.8L26.1 17.7C25.5 18.4 24.7 18.7 23.8 18.7M19.7 2.6L15.4 6.9C14.7 7.6 14.7 8.9 15.4 9.6L22.5 16.7C23.2 17.4 24.5 17.4 25.2 16.7L29.5 12.4z"></path></g></g></svg></g></svg></g></svg></g><defs><mask></mask></defs><mask><g id="SvgjsG1020"><svg viewBox="0 0 395.52 34.21458554247787" height="34.21458554247787" width="395.52"><g><svg viewBox="0 0 442.5391010106833 38.281988085106384" height="34.21458554247787" width="395.52"><g transform="matrix(1,0,0,1,0,0.6740436879432643)"><svg viewBox="0 0 395.52 36.933900709219856" height="36.933900709219856" width="395.52"><g id="SvgjsG1019"><svg viewBox="0 0 395.52 36.933900709219856" height="36.933900709219856" width="395.52" id="SvgjsSvg1018"><g><svg viewBox="0 0 395.52 36.933900709219856" height="36.933900709219856" width="395.52"><g transform="matrix(1,0,0,1,0,0)"><svg width="395.52" viewBox="4.47 -38.09 413.04999999999995 38.580000000000005" height="36.933900709219856" data-palette-color="url(#97e45db8-3931-4147-bfa1-5bd48780d10e)"><path d="M8.94 0.02L4.47 0.02 4.47-11.84 5.05-35.55 10.69-35.55 22.19-9.67 33.76-35.55 39.26-35.55 39.84-11.87 39.84 0.02 35.4 0.02 35.4-11.77 35.21-29.13 24.07-4.22 20.21-4.22 9.16-29.37 8.94-11.69 8.94 0.02ZM55.59 0.49L55.59 0.49Q51.8 0.49 49.44-1.42 47.07-3.32 47.07-7.18L47.07-7.18Q47.07-8.94 47.69-10.3 48.31-11.67 49.58-12.61 50.85-13.55 52.85-14.04 54.86-14.53 57.59-14.53L57.59-14.53 63.55-14.53 63.55-17.58Q63.55-20.78 62.11-22.2 60.67-23.63 57.76-23.63L57.76-23.63Q55.88-23.63 53.53-23.03 51.17-22.44 49.29-21.14L49.29-21.14 48-24.51Q49.34-25.37 50.96-25.92 52.59-26.46 54.36-26.73 56.13-27 57.88-27L57.88-27Q60.86-27 63.13-26.05 65.4-25.1 66.68-22.95 67.97-20.8 67.97-17.21L67.97-17.21 67.97 0 64.26 0 63.94-3.25Q62.89-2 61.64-1.17 60.4-0.34 58.9 0.07 57.39 0.49 55.59 0.49ZM56.27-2.66L56.27-2.66Q58.62-2.66 60.47-3.64 62.33-4.61 63.55-6.18L63.55-6.18 63.55-11.72 58.4-11.72Q55.71-11.72 54.15-11.21 52.59-10.69 51.94-9.68 51.29-8.67 51.29-7.13L51.29-7.13Q51.29-4.64 52.74-3.65 54.2-2.66 56.27-2.66ZM83.98 0.49L83.98 0.49Q80.81 0.49 78.08-0.57 75.36-1.64 73.73-3.69L73.73-3.69 76.04-5.93 76.39-5.93Q77.97-4.1 80.05-3.42 82.12-2.73 83.98-2.73L83.98-2.73Q86.52-2.73 87.91-3.91 89.3-5.08 89.3-7.5L89.3-7.5Q89.3-8.35 88.98-9.05 88.67-9.74 87.69-10.36 86.71-10.99 84.69-11.62L84.69-11.62 81.71-12.55Q78.51-13.55 76.97-14.65 75.43-15.75 74.96-17.04 74.48-18.33 74.48-19.9L74.48-19.9Q74.48-23.19 77.06-25.1 79.63-27 84.05-27L84.05-27Q86.2-27 87.89-26.5 89.57-26 90.82-25.13 92.06-24.27 92.84-23.14L92.84-23.14 90.42-21.17 90.18-21.17Q89.28-22.24 87.74-22.95 86.2-23.66 84.08-23.66L84.08-23.66Q82.22-23.66 81.07-23.21 79.93-22.75 79.39-21.9 78.85-21.04 78.85-19.87L78.85-19.87Q78.85-18.53 79.65-17.72 80.44-16.92 83.15-16.06L83.15-16.06 86.08-15.14Q89.25-14.11 90.8-12.94 92.35-11.77 92.85-10.46 93.35-9.16 93.35-7.67L93.35-7.67Q93.35-4.79 92.08-2.99 90.82-1.2 88.69-0.35 86.57 0.49 83.98 0.49ZM109.95 0.2L109.95 0.2Q107.15 0.2 105.42-0.23 103.7-0.66 102.81-1.61 101.92-2.56 101.6-4.17 101.29-5.79 101.29-8.15L101.29-8.15 101.29-23.71 97.11-23.71 97.23-26.17 101.41-26.39 102.04-33.54 105.73-33.81 105.73-26.42 112.76-26.42 112.76-23.71 105.73-23.71 105.73-8.13Q105.73-6.05 105.96-4.98 106.19-3.91 107.1-3.5 108-3.1 109.95-3.03L109.95-3.03Q110.61-3 111.27-2.98 111.93-2.95 112.59-2.93L112.59-2.93 112.39 0.2Q111.78 0.2 111.17 0.2 110.56 0.2 109.95 0.2ZM130.46 0.49L130.46 0.49Q126.89 0.49 124.03-1.15 121.16-2.78 119.48-5.85 117.81-8.91 117.81-13.13L117.81-13.13Q117.81-17.53 119.45-20.63 121.08-23.73 123.84-25.37 126.6-27 129.92-27L129.92-27Q133.17-27 135.46-25.56 137.76-24.12 138.99-21.46 140.22-18.8 140.22-15.14L140.22-15.14Q140.22-14.77 140.16-14.14 140.1-13.5 140.05-12.99 140-12.48 140-12.43L140-12.43 122.35-12.43Q122.55-9.06 123.71-6.93 124.87-4.81 126.76-3.81 128.65-2.81 131.02-2.81L131.02-2.81Q133.29-2.81 134.9-3.45 136.51-4.1 138.15-5.03L138.15-5.03 138.47-5.03 139.49-2.12Q137.86-1 135.55-0.26 133.24 0.49 130.46 0.49ZM122.43-15.31L122.43-15.31 136.42-15.31Q136.37-19.29 134.84-21.5 133.32-23.71 130.14-23.71L130.14-23.71Q126.94-23.71 124.86-21.45 122.77-19.19 122.43-15.31ZM151.4 0L146.98 0 146.98-26.42 150.57-26.42 151.01-20.92Q152.38-24.19 154.38-25.46 156.38-26.73 158.63-26.73L158.63-26.73Q159.17-26.73 159.63-26.71 160.09-26.68 160.56-26.61L160.56-26.61 160.22-23.1Q159.97-23.1 159.73-23.11 159.48-23.12 159.22-23.12L159.22-23.12Q156.58-23.12 154.85-22.02 153.11-20.92 152.26-19.08 151.4-17.24 151.4-14.99L151.4-14.99 151.4 0ZM194.32 0.49L194.32 0.49Q189.58 0.49 186.01-1.66 182.43-3.81 180.45-7.9 178.47-11.99 178.47-17.8L178.47-17.8Q178.47-23.61 180.45-27.7 182.43-31.79 186.01-33.94 189.58-36.08 194.32-36.08L194.32-36.08Q196.1-36.08 197.83-35.72 199.57-35.35 201.14-34.61 202.72-33.86 204.01-32.75 205.3-31.64 206.21-30.15 207.11-28.66 207.5-26.78L207.5-26.78 204.08-25.54 203.69-25.54Q203.25-27.51 201.96-29.05 200.67-30.59 198.77-31.46 196.88-32.32 194.64-32.32L194.64-32.32Q192.07-32.32 189.98-31.42 187.9-30.52 186.41-28.7 184.92-26.88 184.11-24.16 183.31-21.44 183.31-17.8L183.31-17.8Q183.31-12.96 184.72-9.73 186.14-6.49 188.69-4.87 191.24-3.25 194.64-3.25L194.64-3.25Q196.88-3.25 198.8-4.14 200.71-5.03 202.03-6.57 203.35-8.11 203.79-10.06L203.79-10.06 204.18-10.06 207.6-8.81Q207.21-6.96 206.29-5.46 205.38-3.96 204.07-2.84 202.77-1.73 201.19-0.99 199.62-0.24 197.86 0.12 196.1 0.49 194.32 0.49ZM221.29 0.2L221.29 0.2Q218.95 0.2 217.35-0.4 215.75-1 214.93-2.67 214.12-4.35 214.12-7.57L214.12-7.57 214.12-37.6 218.53-38.09 218.53-7.62Q218.53-5.64 218.78-4.74 219.02-3.83 219.77-3.54 220.51-3.25 221.98-3.13L221.98-3.13Q222.37-3.1 222.73-3.08 223.1-3.05 223.49-3.03L223.49-3.03 223.15 0.2Q222.69 0.2 222.22 0.2 221.76 0.2 221.29 0.2ZM236.7 0.49L236.7 0.49Q232.91 0.49 230.54-1.42 228.18-3.32 228.18-7.18L228.18-7.18Q228.18-8.94 228.8-10.3 229.42-11.67 230.69-12.61 231.96-13.55 233.96-14.04 235.96-14.53 238.7-14.53L238.7-14.53 244.66-14.53 244.66-17.58Q244.66-20.78 243.21-22.2 241.77-23.63 238.87-23.63L238.87-23.63Q236.99-23.63 234.63-23.03 232.28-22.44 230.4-21.14L230.4-21.14 229.1-24.51Q230.45-25.37 232.07-25.92 233.69-26.46 235.46-26.73 237.23-27 238.99-27L238.99-27Q241.97-27 244.24-26.05 246.51-25.1 247.79-22.95 249.07-20.8 249.07-17.21L249.07-17.21 249.07 0 245.36 0 245.05-3.25Q244-2 242.75-1.17 241.51-0.34 240 0.07 238.5 0.49 236.7 0.49ZM237.38-2.66L237.38-2.66Q239.72-2.66 241.58-3.64 243.43-4.61 244.66-6.18L244.66-6.18 244.66-11.72 239.5-11.72Q236.82-11.72 235.26-11.21 233.69-10.69 233.05-9.68 232.4-8.67 232.4-7.13L232.4-7.13Q232.4-4.64 233.85-3.65 235.3-2.66 237.38-2.66ZM265.09 0.49L265.09 0.49Q261.91 0.49 259.19-0.57 256.47-1.64 254.83-3.69L254.83-3.69 257.15-5.93 257.49-5.93Q259.08-4.1 261.16-3.42 263.23-2.73 265.09-2.73L265.09-2.73Q267.63-2.73 269.02-3.91 270.41-5.08 270.41-7.5L270.41-7.5Q270.41-8.35 270.09-9.05 269.77-9.74 268.8-10.36 267.82-10.99 265.8-11.62L265.8-11.62 262.82-12.55Q259.62-13.55 258.08-14.65 256.54-15.75 256.07-17.04 255.59-18.33 255.59-19.9L255.59-19.9Q255.59-23.19 258.17-25.1 260.74-27 265.16-27L265.16-27Q267.31-27 268.99-26.5 270.68-26 271.92-25.13 273.17-24.27 273.95-23.14L273.95-23.14 271.53-21.17 271.29-21.17Q270.39-22.24 268.85-22.95 267.31-23.66 265.18-23.66L265.18-23.66Q263.33-23.66 262.18-23.21 261.03-22.75 260.5-21.9 259.96-21.04 259.96-19.87L259.96-19.87Q259.96-18.53 260.75-17.72 261.55-16.92 264.26-16.06L264.26-16.06 267.19-15.14Q270.36-14.11 271.91-12.94 273.46-11.77 273.96-10.46 274.46-9.16 274.46-7.67L274.46-7.67Q274.46-4.79 273.19-2.99 271.92-1.2 269.8-0.35 267.68 0.49 265.09 0.49ZM289.08 0.49L289.08 0.49Q285.91 0.49 283.19-0.57 280.47-1.64 278.83-3.69L278.83-3.69 281.15-5.93 281.49-5.93Q283.08-4.1 285.15-3.42 287.23-2.73 289.08-2.73L289.08-2.73Q291.62-2.73 293.01-3.91 294.41-5.08 294.41-7.5L294.41-7.5Q294.41-8.35 294.09-9.05 293.77-9.74 292.79-10.36 291.82-10.99 289.79-11.62L289.79-11.62 286.81-12.55Q283.62-13.55 282.08-14.65 280.54-15.75 280.06-17.04 279.59-18.33 279.59-19.9L279.59-19.9Q279.59-23.19 282.16-25.1 284.74-27 289.16-27L289.16-27Q291.31-27 292.99-26.5 294.67-26 295.92-25.13 297.16-24.27 297.95-23.14L297.95-23.14 295.53-21.17 295.29-21.17Q294.38-22.24 292.84-22.95 291.31-23.66 289.18-23.66L289.18-23.66Q287.33-23.66 286.18-23.21 285.03-22.75 284.49-21.9 283.96-21.04 283.96-19.87L283.96-19.87Q283.96-18.53 284.75-17.72 285.54-16.92 288.25-16.06L288.25-16.06 291.18-15.14Q294.36-14.11 295.91-12.94 297.46-11.77 297.96-10.46 298.46-9.16 298.46-7.67L298.46-7.67Q298.46-4.79 297.19-2.99 295.92-1.2 293.8-0.35 291.67 0.49 289.08 0.49ZM309.2 0L304.76 0 304.76-26.42 308.47-26.42 308.93-21.24Q310.15-24.27 312.27-25.63 314.4-27 316.99-27L316.99-27Q319.01-27 320.58-26.25 322.14-25.49 323.19-24.1 324.24-22.71 324.73-20.78L324.73-20.78Q326.02-23.97 328.3-25.49 330.59-27 333.42-27L333.42-27Q337.49-27 339.67-24.45 341.84-21.9 341.84-17.02L341.84-17.02 341.84 0 337.42 0 337.42-15.72Q337.42-17.65 337.08-19.48 336.74-21.31 335.7-22.5 334.66-23.68 332.56-23.68L332.56-23.68Q330.93-23.68 329.3-22.62 327.68-21.56 326.61-19.52 325.53-17.48 325.53-14.55L325.53-14.55 325.53 0 321.09 0 321.09-14.89Q321.09-17.94 320.59-19.89 320.09-21.83 318.99-22.75 317.89-23.68 316.11-23.68L316.11-23.68Q314.13-23.68 312.69-22.62 311.25-21.56 310.37-19.73 309.49-17.9 309.2-15.58L309.2-15.58 309.2 0ZM356.88 0.49L356.88 0.49Q353.09 0.49 350.72-1.42 348.36-3.32 348.36-7.18L348.36-7.18Q348.36-8.94 348.98-10.3 349.6-11.67 350.87-12.61 352.14-13.55 354.14-14.04 356.14-14.53 358.88-14.53L358.88-14.53 364.84-14.53 364.84-17.58Q364.84-20.78 363.4-22.2 361.95-23.63 359.05-23.63L359.05-23.63Q357.17-23.63 354.81-23.03 352.46-22.44 350.58-21.14L350.58-21.14 349.28-24.51Q350.63-25.37 352.25-25.92 353.87-26.46 355.64-26.73 357.41-27 359.17-27L359.17-27Q362.15-27 364.42-26.05 366.69-25.1 367.97-22.95 369.25-20.8 369.25-17.21L369.25-17.21 369.25 0 365.54 0 365.23-3.25Q364.18-2 362.93-1.17 361.69-0.34 360.18 0.07 358.68 0.49 356.88 0.49ZM357.56-2.66L357.56-2.66Q359.9-2.66 361.76-3.64 363.61-4.61 364.84-6.18L364.84-6.18 364.84-11.72 359.68-11.72Q357-11.72 355.44-11.21 353.87-10.69 353.23-9.68 352.58-8.67 352.58-7.13L352.58-7.13Q352.58-4.64 354.03-3.65 355.49-2.66 357.56-2.66ZM387.25 0.2L387.25 0.2Q384.44 0.2 382.72-0.23 381-0.66 380.1-1.61 379.21-2.56 378.9-4.17 378.58-5.79 378.58-8.15L378.58-8.15 378.58-23.71 374.4-23.71 374.53-26.17 378.7-26.39 379.34-33.54 383.02-33.81 383.02-26.42 390.05-26.42 390.05-23.71 383.02-23.71 383.02-8.13Q383.02-6.05 383.25-4.98 383.49-3.91 384.39-3.5 385.29-3.1 387.25-3.03L387.25-3.03Q387.9-3 388.56-2.98 389.22-2.95 389.88-2.93L389.88-2.93 389.69 0.2Q389.08 0.2 388.47 0.2 387.86 0.2 387.25 0.2ZM407.75 0.49L407.75 0.49Q404.19 0.49 401.32-1.15 398.45-2.78 396.78-5.85 395.1-8.91 395.1-13.13L395.1-13.13Q395.1-17.53 396.74-20.63 398.38-23.73 401.13-25.37 403.89-27 407.21-27L407.21-27Q410.46-27 412.76-25.56 415.05-24.12 416.28-21.46 417.52-18.8 417.52-15.14L417.52-15.14Q417.52-14.77 417.46-14.14 417.39-13.5 417.35-12.99 417.3-12.48 417.3-12.43L417.3-12.43 399.65-12.43Q399.84-9.06 401-6.93 402.16-4.81 404.05-3.81 405.94-2.81 408.31-2.81L408.31-2.81Q410.58-2.81 412.19-3.45 413.81-4.1 415.44-5.03L415.44-5.03 415.76-5.03 416.78-2.12Q415.15-1 412.84-0.26 410.53 0.49 407.75 0.49ZM399.72-15.31L399.72-15.31 413.71-15.31Q413.66-19.29 412.13-21.5 410.61-23.71 407.43-23.71L407.43-23.71Q404.23-23.71 402.15-21.45 400.06-19.19 399.72-15.31Z" opacity="1" transform="matrix(1,0,0,1,0,0)" fill="black" class="wordmark-text-0" id="SvgjsPath1017"></path></svg></g></svg></g></svg></g></svg></g><g transform="matrix(1,0,0,1,404.23920754382976,0)"><svg viewBox="0 0 38.29989346685351 38.281988085106384" height="38.281988085106384" width="38.29989346685351"><g><svg xmlns="http://www.w3.org/2000/svg" xmlns:xlink="http://www.w3.org/1999/xlink" version="1.1" x="0" y="0" viewBox="0.7607695154586737 0.7749999999999999 30.439230484541326 30.425" enable-background="new 0 0 32 32" xml:space="preserve" height="38.281988085106384" width="38.29989346685351" class="icon-icon-0" data-fill-palette-color="accent" id="SvgjsSvg1016"><g fill="black"><g fill="black"><path fill="black" d="M1.5 31.2C1.3 31.2 1.1 31.1 1 31 0.8 30.8 0.7 30.6 0.8 30.3L4.5 11.2C4.6 10.9 4.8 10.6 5.1 10.6L14.7 9.3C14.9 9.3 15.2 9.3 15.3 9.5L22.5 16.7C22.7 16.9 22.7 17.1 22.7 17.3L21.4 26.9C21.4 27.2 21.1 27.5 20.8 27.5L1.6 31.2zM5.8 12.1L2.4 29.6 19.9 26.2 21.1 17.5 14.4 10.8z"></path></g><g fill="black"><rect x="5.2" y="19.8" transform="matrix(-0.7071 -0.7071 0.7071 -0.7071 -8.3465 48.7211)" fill="black" width="1.5" height="12.6"></rect></g><g fill="black"><path fill="black" d="M12 23.1C11.2 23.1 10.4 22.8 9.8 22.2S8.9 20.9 8.9 20C8.9 19.2 9.2 18.4 9.8 17.8 11 16.6 13 16.6 14.1 17.8 15.3 19 15.3 20.9 14.1 22.1 13.6 22.8 12.8 23.1 12 23.1M12 18.4C11.6 18.4 11.2 18.6 10.9 18.9S10.4 19.6 10.4 20 10.6 20.8 10.9 21.1C11.5 21.7 12.5 21.7 13.1 21.1S13.7 19.5 13.1 18.9C12.8 18.6 12.4 18.4 12 18.4"></path></g><g fill="black"><path fill="black" d="M23.8 18.7C22.9 18.7 22 18.3 21.4 17.7L14.3 10.6C13 9.3 13 7.1 14.3 5.8L19.1 1C19.4 0.7 19.9 0.7 20.2 1L31 11.8C31.1 11.9 31.2 12.1 31.2 12.3S31.1 12.7 31 12.8L26.1 17.7C25.5 18.4 24.7 18.7 23.8 18.7M19.7 2.6L15.4 6.9C14.7 7.6 14.7 8.9 15.4 9.6L22.5 16.7C23.2 17.4 24.5 17.4 25.2 16.7L29.5 12.4z"></path></g></g></svg></g></svg></g></svg></g><defs><mask></mask></defs></svg><rect width="395.52" height="34.21458554247787" fill="black" stroke="none" visibility="hidden"></rect></g></mask></svg><rect width="395.52" height="34.21458554247787" fill="black" stroke="none" visibility="hidden"></rect></g></mask><linearGradient x1="0" x2="1" y1="0.578" y2="0.595" id="3f8f8456-b202-4a84-a38c-f5981e4e1df9"><stop stop-color="#6ee2f5" offset="0"></stop><stop stop-color="#6454f0" offset="1"></stop></linearGradient><rect width="395.52" height="34.21458554247787" fill="#ffffff" mask="url(#8b522c6f-2fa9-4e6b-be3d-ecc5f709398a)" data-fill-palette-color="accent"></rect></svg><rect width="395.52" height="34.21458554247787" fill="none" stroke="none" visibility="hidden"></rect></g></svg></g></svg>